<?xml version="1.0" encoding="UTF-8" standalone="no"?>
<!DOCTYPE svg PUBLIC "-//W3C//DTD SVG 1.1//EN" "http://www.w3.org/Graphics/SVG/1.1/DTD/svg11.dtd">
<!-- Generated by Microsoft Visio, SVG Export Line Follower.svg Garbage Collector (2) -->
<svg xmlns="http://www.w3.org/2000/svg" xmlns:xlink="http://www.w3.org/1999/xlink" xmlns:ev="http://www.w3.org/2001/xml-events"
		xmlns:v="http://schemas.microsoft.com/visio/2003/SVGExtensions/" width="11in" height="16.5in" viewBox="0 0 792 1188"
		xml:space="preserve" color-interpolation-filters="sRGB" class="st13">
	<v:documentProperties v:langID="1033" v:viewMarkup="false">
		<v:userDefs>
			<v:ud v:nameU="msvNoAutoConnect" v:val="VT0(1):26"/>
			<v:ud v:nameU="msvWarnOnPersonalInfo" v:val="VT0(0):5"/>
		</v:userDefs>
	</v:documentProperties>

	<style type="text/css">
	<![CDATA[
		.st1 {fill:none;stroke:none;stroke-width:0.25}
		.st2 {fill:#000000;font-family:Calibri;font-size:1.00001em}
		.st3 {font-size:1em}
		.st4 {fill:none;stroke:#000000;stroke-width:3}
		.st5 {fill:#000000;font-family:Calibri;font-size:0.833336em;font-weight:bold}
		.st6 {fill:#000000;font-family:Calibri;font-size:0.833336em}
		.st7 {marker-end:url(#mrkr4-18);stroke:#000000;stroke-linecap:round;stroke-linejoin:round;stroke-width:1}
		.st8 {fill:#000000;fill-opacity:1;stroke:#000000;stroke-opacity:1;stroke-width:0.28409090909091}
		.st9 {marker-end:url(#mrkr4-70);stroke:#000000;stroke-linecap:round;stroke-linejoin:round;stroke-width:1}
		.st10 {fill:#ffffff;stroke:none;stroke-linecap:butt}
		.st11 {fill:#000000;font-family:Calibri;font-size:0.666664em}
		.st12 {fill:#ffffff;stroke:none;stroke-linecap:butt;stroke-width:7.2}
		.st13 {fill:none;fill-rule:evenodd;font-size:12px;overflow:visible;stroke-linecap:square;stroke-miterlimit:3}
	]]>
	</style>

	<defs id="Markers">
		<g id="lend4">
			<path d="M 2 1 L 0 0 L 2 -1 L 2 1 " style="stroke:none"/>
		</g>
		<marker id="mrkr4-18" class="st8" v:arrowType="4" v:arrowSize="2" v:setback="6.68" refX="-6.68" orient="auto"
				markerUnits="strokeWidth" overflow="visible">
			<use xlink:href="#lend4" transform="scale(-3.52,-3.52) "/>
		</marker>
		<marker id="mrkr4-70" class="st8" v:arrowType="4" v:arrowSize="2" v:setback="7.04" refX="-7.04" orient="auto"
				markerUnits="strokeWidth" overflow="visible">
			<use xlink:href="#lend4" transform="scale(-3.52,-3.52) "/>
		</marker>
	</defs>
	<g v:mID="13" v:index="6" v:groupContext="foregroundPage">
		<v:userDefs>
			<v:ud v:nameU="msvThemeOrder" v:val="VT0(0):26"/>
		</v:userDefs>
		<title>Line Follower</title>
		<v:pageProperties v:drawingScale="1" v:pageScale="1" v:drawingUnits="19" v:shadowOffsetX="9" v:shadowOffsetY="-9"/>
		<v:layer v:name="Connector" v:index="0"/>
		<g id="shape1-1" v:mID="1" v:groupContext="shape" transform="translate(58.8312,-1103.32)">
			<title>Sheet.1</title>
			<desc> LINE FOLLOWER Priority 1 Period: 30ms</desc>
			<v:textBlock v:margins="rect(4,4,4,4)"/>
			<v:textRect cx="116.64" cy="1164.96" width="233.29" height="46.08"/>
			<rect x="0" y="1141.92" width="233.28" height="46.08" class="st1"/>
			<text x="78.53" y="1154.16" class="st2" v:langID="1033"><v:paragraph v:horizAlign="1"/><v:tabList/> LINE FOLLOWER<v:newlineChar/><v:paragraph
						v:horizAlign="1"/><tspan x="94.32" dy="1.2em" class="st3">Priority 1<v:newlineChar/><v:paragraph
							v:horizAlign="1"/></tspan><tspan x="84.59" dy="1.2em" class="st3">Period: 30ms</tspan></text>		</g>
		<g id="shape2-6" v:mID="2" v:groupContext="shape" transform="translate(128.873,-968.227)">
			<title>Ellipse.1</title>
			<desc>STATE 0 SAVE HEADING</desc>
			<v:userDefs>
				<v:ud v:nameU="visVersion" v:val="VT0(15):26"/>
			</v:userDefs>
			<v:textBlock v:margins="rect(4,4,4,4)"/>
			<v:textRect cx="46.5984" cy="1156.86" width="81.55" height="54.495"/>
			<path d="M0 1156.86 A46.5984 31.14 0 0 1 93.2 1156.86 A46.5984 31.14 0 0 1 0 1156.86 Z" class="st4"/>
			<text x="30.15" y="1153.86" class="st5" v:langID="1033"><v:paragraph v:horizAlign="1"/><v:tabList/>STATE 0<v:newlineChar/><v:paragraph
						v:horizAlign="1"/><tspan x="15.09" dy="1.2em" class="st3">SAVE HEADING</tspan></text>		</g>
		<g id="shape3-10" v:mID="3" v:groupContext="shape" transform="translate(252.842,-1060.51)">
			<title>Rectangle.19</title>
			<desc>START</desc>
			<v:userDefs>
				<v:ud v:nameU="visVersion" v:val="VT0(15):26"/>
			</v:userDefs>
			<v:textBlock v:margins="rect(4,4,4,4)"/>
			<v:textRect cx="46.5984" cy="1173.6" width="93.2" height="28.8"/>
			<rect x="0" y="1159.2" width="93.1968" height="28.8" class="st4"/>
			<text x="33.82" y="1176.6" class="st6" v:langID="1033"><v:paragraph v:horizAlign="1"/><v:tabList/>START</text>		</g>
		<g id="shape4-13" v:mID="4" v:groupContext="shape" v:layerMember="0" transform="translate(252.842,-1074.91)">
			<title>Dynamic connector.20</title>
			<path d="M0 1188 C-19.34 1188 -50.42 1188 -64.85 1197.55 C-74.88 1204.19 -76.88 1215.44 -77.27 1225.36 L-77.28 1225.72"
					class="st7"/>
		</g>
		<g id="shape5-19" v:mID="5" v:groupContext="shape" transform="translate(351.547,-968.227)">
			<title>Ellipse.5</title>
			<desc>STATE 1 LINE  FOLLOW, WATCH TOF</desc>
			<v:userDefs>
				<v:ud v:nameU="visVersion" v:val="VT0(15):26"/>
			</v:userDefs>
			<v:textBlock v:margins="rect(4,4,4,4)"/>
			<v:textRect cx="46.5984" cy="1156.86" width="81.55" height="54.495"/>
			<path d="M0 1156.86 A46.5984 31.14 0 0 1 93.2 1156.86 A46.5984 31.14 0 0 1 0 1156.86 Z" class="st4"/>
			<text x="30.15" y="1147.86" class="st5" v:langID="1033"><v:paragraph v:horizAlign="1"/><v:tabList/>STATE 1<v:newlineChar/><v:paragraph
						v:horizAlign="1"/><tspan x="16.05" dy="1.2em" class="st3">LINE</tspan>  FOLLOW, <tspan x="21.48" dy="1.2em"
						class="st3">WATCH TOF</tspan></text>		</g>
		<g id="shape6-24" v:mID="6" v:groupContext="shape" transform="translate(128.866,-827.1)">
			<title>Ellipse.6</title>
			<desc>STATE 5 DRIVE UPWARDS</desc>
			<v:userDefs>
				<v:ud v:nameU="visVersion" v:val="VT0(15):26"/>
			</v:userDefs>
			<v:textBlock v:margins="rect(4,4,4,4)"/>
			<v:textRect cx="46.5984" cy="1156.86" width="81.55" height="54.495"/>
			<path d="M0 1156.86 A46.5984 31.14 0 0 1 93.2 1156.86 A46.5984 31.14 0 0 1 0 1156.86 Z" class="st4"/>
			<text x="30.15" y="1153.86" class="st5" v:langID="1033"><v:paragraph v:horizAlign="1"/><v:tabList/>STATE 5<v:newlineChar/><v:paragraph
						v:horizAlign="1"/><tspan x="10.96" dy="1.2em" class="st3">DRIVE UPWARDS</tspan></text>		</g>
		<g id="shape7-28" v:mID="7" v:groupContext="shape" transform="translate(574.222,-544.846)">
			<title>Ellipse.7</title>
			<desc>STATE 10 DRIVE TO START</desc>
			<v:userDefs>
				<v:ud v:nameU="visVersion" v:val="VT0(15):26"/>
			</v:userDefs>
			<v:textBlock v:margins="rect(4,4,4,4)"/>
			<v:textRect cx="46.5984" cy="1156.86" width="81.55" height="54.495"/>
			<path d="M0 1156.86 A46.5984 31.14 0 0 1 93.2 1156.86 A46.5984 31.14 0 0 1 0 1156.86 Z" class="st4"/>
			<text x="27.62" y="1153.86" class="st5" v:langID="1033"><v:paragraph v:horizAlign="1"/><v:tabList/>STATE 10<v:newlineChar/><v:paragraph
						v:horizAlign="1"/><tspan x="12.63" dy="1.2em" class="st3">DRIVE TO START</tspan></text>		</g>
		<g id="shape8-32" v:mID="8" v:groupContext="shape" transform="translate(351.547,-685.973)">
			<title>Ellipse.8</title>
			<desc>STATE 8 STOP AT FINISH</desc>
			<v:userDefs>
				<v:ud v:nameU="visVersion" v:val="VT0(15):26"/>
			</v:userDefs>
			<v:textBlock v:margins="rect(4,4,4,4)"/>
			<v:textRect cx="46.5984" cy="1156.86" width="81.55" height="54.495"/>
			<path d="M0 1156.86 A46.5984 31.14 0 0 1 93.2 1156.86 A46.5984 31.14 0 0 1 0 1156.86 Z" class="st4"/>
			<text x="30.15" y="1153.86" class="st5" v:langID="1033"><v:paragraph v:horizAlign="1"/><v:tabList/>STATE 8<v:newlineChar/><v:paragraph
						v:horizAlign="1"/><tspan x="14.18" dy="1.2em" class="st3">STOP AT FINISH</tspan></text>		</g>
		<g id="shape9-36" v:mID="9" v:groupContext="shape" transform="translate(128.866,-685.973)">
			<title>Ellipse.9</title>
			<desc>STATE 7 LINE FOLLOW, WATCH X COORD</desc>
			<v:userDefs>
				<v:ud v:nameU="visVersion" v:val="VT0(15):26"/>
			</v:userDefs>
			<v:textBlock v:margins="rect(4,4,4,4)"/>
			<v:textRect cx="46.5984" cy="1156.86" width="81.55" height="54.495"/>
			<path d="M0 1156.86 A46.5984 31.14 0 0 1 93.2 1156.86 A46.5984 31.14 0 0 1 0 1156.86 Z" class="st4"/>
			<text x="30.15" y="1147.86" class="st5" v:langID="1033"><v:paragraph v:horizAlign="1"/><v:tabList/>STATE 7<v:newlineChar/><v:paragraph
						v:horizAlign="1"/><tspan x="17.18" dy="1.2em" class="st3">LINE FOLLOW, </tspan><tspan x="10.37" dy="1.2em"
						class="st3">WATCH X COORD</tspan></text>		</g>
		<g id="shape10-41" v:mID="10" v:groupContext="shape" transform="translate(351.547,-827.1)">
			<title>Ellipse.10</title>
			<desc>STATE 4 DRIVE FORWARDS </desc>
			<v:userDefs>
				<v:ud v:nameU="visVersion" v:val="VT0(15):26"/>
			</v:userDefs>
			<v:textBlock v:margins="rect(4,4,4,4)"/>
			<v:textRect cx="46.5984" cy="1156.86" width="81.55" height="54.495"/>
			<path d="M0 1156.86 A46.5984 31.14 0 0 1 93.2 1156.86 A46.5984 31.14 0 0 1 0 1156.86 Z" class="st4"/>
			<text x="30.15" y="1147.86" class="st5" v:langID="1033"><v:paragraph v:horizAlign="1"/><v:tabList/>STATE 4<v:newlineChar/><v:paragraph
						v:horizAlign="1"/><tspan x="33.9" dy="1.2em" class="st3">DRIVE </tspan><tspan x="21.09" dy="1.2em"
						class="st3">FORWARDS</tspan> </text>		</g>
		<g id="shape13-46" v:mID="13" v:groupContext="shape" transform="translate(574.222,-968.227)">
			<title>Ellipse.13</title>
			<desc>STATE 2 RIGHT PIVOT 90 DEGREES</desc>
			<v:userDefs>
				<v:ud v:nameU="visVersion" v:val="VT0(15):26"/>
			</v:userDefs>
			<v:textBlock v:margins="rect(4,4,4,4)"/>
			<v:textRect cx="46.5984" cy="1156.86" width="81.55" height="54.495"/>
			<path d="M0 1156.86 A46.5984 31.14 0 0 1 93.2 1156.86 A46.5984 31.14 0 0 1 0 1156.86 Z" class="st4"/>
			<text x="30.15" y="1147.86" class="st5" v:langID="1033"><v:paragraph v:horizAlign="1"/><v:tabList/>STATE 2<v:newlineChar/><v:paragraph
						v:horizAlign="1"/><tspan x="13.5" dy="1.2em" class="st3">RIGHT PIVOT 90 </tspan><tspan x="27.77" dy="1.2em"
						class="st3">DEGREES</tspan></text>		</g>
		<g id="shape14-51" v:mID="14" v:groupContext="shape" transform="translate(574.222,-685.973)">
			<title>Ellipse.14</title>
			<desc>STATE 9 PIVOT TOWARDS START</desc>
			<v:userDefs>
				<v:ud v:nameU="visVersion" v:val="VT0(15):26"/>
			</v:userDefs>
			<v:textBlock v:margins="rect(4,4,4,4)"/>
			<v:textRect cx="46.5984" cy="1156.86" width="81.55" height="54.495"/>
			<path d="M0 1156.86 A46.5984 31.14 0 0 1 93.2 1156.86 A46.5984 31.14 0 0 1 0 1156.86 Z" class="st4"/>
			<text x="30.15" y="1147.86" class="st5" v:langID="1033"><v:paragraph v:horizAlign="1"/><v:tabList/>STATE 9<v:newlineChar/><v:paragraph
						v:horizAlign="1"/><tspan x="10.91" dy="1.2em" class="st3">PIVOT TOWARDS </tspan><tspan x="33.44" dy="1.2em"
						class="st3">START</tspan></text>		</g>
		<g id="shape15-56" v:mID="15" v:groupContext="shape" transform="translate(574.222,-827.1)">
			<title>Ellipse.15</title>
			<desc>STATE 3 DRIVE DOWNWARDS</desc>
			<v:userDefs>
				<v:ud v:nameU="visVersion" v:val="VT0(15):26"/>
			</v:userDefs>
			<v:textBlock v:margins="rect(4,4,4,4)"/>
			<v:textRect cx="46.5984" cy="1156.86" width="81.55" height="54.495"/>
			<path d="M0 1156.86 A46.5984 31.14 0 0 1 93.2 1156.86 A46.5984 31.14 0 0 1 0 1156.86 Z" class="st4"/>
			<text x="30.15" y="1147.86" class="st5" v:langID="1033"><v:paragraph v:horizAlign="1"/><v:tabList/>STATE 3<v:newlineChar/><v:paragraph
						v:horizAlign="1"/><tspan x="33.9" dy="1.2em" class="st3">DRIVE </tspan><tspan x="16.35" dy="1.2em"
						class="st3">DOWNWARDS</tspan></text>		</g>
		<g id="shape18-61" v:mID="18" v:groupContext="shape" transform="translate(351.54,-544.846)">
			<title>Ellipse.18</title>
			<desc>STATE 11 STOP</desc>
			<v:userDefs>
				<v:ud v:nameU="visVersion" v:val="VT0(15):26"/>
			</v:userDefs>
			<v:textBlock v:margins="rect(4,4,4,4)"/>
			<v:textRect cx="46.5984" cy="1156.86" width="81.55" height="54.495"/>
			<path d="M0 1156.86 A46.5984 31.14 0 0 1 93.2 1156.86 A46.5984 31.14 0 0 1 0 1156.86 Z" class="st4"/>
			<text x="27.62" y="1153.86" class="st5" v:langID="1033"><v:paragraph v:horizAlign="1"/><v:tabList/>STATE 11<v:newlineChar/><v:paragraph
						v:horizAlign="1"/><tspan x="35.72" dy="1.2em" class="st3">STOP</tspan></text>		</g>
		<g id="shape20-65" v:mID="20" v:groupContext="shape" v:layerMember="0" transform="translate(222.07,-990.367)">
			<title>Dynamic connector.20</title>
			<desc>[ALWAYS]</desc>
			<v:textBlock v:margins="rect(4,4,4,4)"/>
			<v:textRect cx="64.7388" cy="1179" width="42.04" height="17.6036"/>
			<path d="M0 1179 L122.44 1179" class="st9"/>
			<rect v:rectContext="textBkgnd" x="48.6295" y="1174.2" width="32.2188" height="9.59985" class="st10"/>
			<text x="48.63" y="1181.4" class="st11" v:langID="1033"><v:paragraph v:horizAlign="1"/><v:tabList/>[ALWAYS]</text>		</g>
		<g id="shape21-73" v:mID="21" v:groupContext="shape" v:layerMember="0" transform="translate(444.744,-990.367)">
			<title>Dynamic connector.21</title>
			<desc>[TOF Distance &#60; 100mm]</desc>
			<v:textBlock v:margins="rect(4,4,4,4)"/>
			<v:textRect cx="64.7388" cy="1179" width="89.91" height="17.6036"/>
			<path d="M0 1179 L122.44 1179" class="st9"/>
			<rect v:rectContext="textBkgnd" x="24.6902" y="1174.2" width="80.0975" height="9.59985" class="st10"/>
			<text x="24.69" y="1181.4" class="st11" v:langID="1033"><v:paragraph v:horizAlign="1"/><v:tabList/>[TOF Distance &#60; 100mm]</text>		</g>
		<g id="shape22-80" v:mID="22" v:groupContext="shape" v:layerMember="0" transform="translate(611.82,-968.227)">
			<title>Dynamic connector.22</title>
			<desc>[Heading within target ±10 deg]</desc>
			<v:textBlock v:margins="rect(4,4,4,4)"/>
			<v:textRect cx="9" cy="1227.42" width="113.01" height="17.6036"/>
			<path d="M9 1188 L9 1259.81" class="st9"/>
			<rect v:rectContext="textBkgnd" x="-42.5951" y="1222.62" width="103.19" height="9.59985" class="st10"/>
			<text x="-42.6" y="1229.82" class="st11" v:langID="1033"><v:paragraph v:horizAlign="1"/><v:tabList/>[Heading within target ±10 deg]</text>		</g>
		<g id="shape24-87" v:mID="24" v:groupContext="shape" v:layerMember="0" transform="translate(574.222,-849.24)">
			<title>Dynamic connector.24</title>
			<desc>[-230mm Y traveled]</desc>
			<v:textBlock v:margins="rect(4,4,4,4)"/>
			<v:textRect cx="-64.7388" cy="1179" width="76.55" height="17.6036"/>
			<path d="M0 1179 L-122.44 1179" class="st9"/>
			<rect v:rectContext="textBkgnd" x="-98.1039" y="1174.2" width="66.7304" height="9.59985" class="st10"/>
			<text x="-98.1" y="1181.4" class="st11" v:langID="1033"><v:paragraph v:horizAlign="1"/><v:tabList/>[-230mm Y traveled]</text>		</g>
		<g id="shape25-94" v:mID="25" v:groupContext="shape" v:layerMember="0" transform="translate(351.547,-849.24)">
			<title>Dynamic connector.25</title>
			<desc>[+700mm X traveled]</desc>
			<v:textBlock v:margins="rect(4,4,4,4)"/>
			<v:textRect cx="-64.7424" cy="1179" width="78.34" height="17.6036"/>
			<path d="M0 1179 L-122.44 1179" class="st9"/>
			<rect v:rectContext="textBkgnd" x="-99.0021" y="1174.2" width="68.5195" height="9.59985" class="st10"/>
			<text x="-99" y="1181.4" class="st11" v:langID="1033"><v:paragraph v:horizAlign="1"/><v:tabList/>[+700mm X traveled]</text>		</g>
		<g id="shape26-101" v:mID="26" v:groupContext="shape" v:layerMember="0" transform="translate(166.464,-827.1)">
			<title>Dynamic connector.26</title>
			<desc>[+170mm Y traveled]</desc>
			<v:textBlock v:margins="rect(4,4,4,4)"/>
			<v:textRect cx="9" cy="1227.42" width="78.08" height="17.6036"/>
			<path d="M9 1188 L9 1259.81" class="st9"/>
			<rect v:rectContext="textBkgnd" x="-25.1328" y="1222.62" width="68.2657" height="9.59985" class="st12"/>
			<text x="-25.13" y="1229.82" class="st11" v:langID="1033"><v:paragraph v:horizAlign="1"/><v:tabList/>[+170mm Y traveled]</text>		</g>
		<g id="shape27-108" v:mID="27" v:groupContext="shape" v:layerMember="0" transform="translate(222.062,-708.113)">
			<title>Dynamic connector.27</title>
			<desc>[X coord ≤ -1100mm]</desc>
			<v:textBlock v:margins="rect(4,4,4,4)"/>
			<v:textRect cx="64.7424" cy="1179" width="78.55" height="17.6036"/>
			<path d="M0 1179 L122.44 1179" class="st9"/>
			<rect v:rectContext="textBkgnd" x="30.3771" y="1174.2" width="68.7307" height="9.59985" class="st12"/>
			<text x="30.38" y="1181.4" class="st11" v:langID="1033"><v:paragraph v:horizAlign="1"/><v:tabList/>[X coord ≤ -1100mm]</text>		</g>
		<g id="shape28-115" v:mID="28" v:groupContext="shape" v:layerMember="0" transform="translate(444.744,-708.113)">
			<title>Dynamic connector.28</title>
			<desc>[ALWAYS]</desc>
			<v:textBlock v:margins="rect(4,4,4,4)"/>
			<v:textRect cx="64.7388" cy="1179" width="42.04" height="17.6036"/>
			<path d="M0 1179 L122.44 1179" class="st9"/>
			<rect v:rectContext="textBkgnd" x="48.6295" y="1174.2" width="32.2188" height="9.59985" class="st12"/>
			<text x="48.63" y="1181.4" class="st11" v:langID="1033"><v:paragraph v:horizAlign="1"/><v:tabList/>[ALWAYS]</text>		</g>
		<g id="shape29-122" v:mID="29" v:groupContext="shape" v:layerMember="0" transform="translate(611.82,-685.973)">
			<title>Dynamic connector.29</title>
			<desc>[Heading within target ±10 deg]</desc>
			<v:textBlock v:margins="rect(4,4,4,4)"/>
			<v:textRect cx="9" cy="1227.42" width="113.01" height="17.6036"/>
			<path d="M9 1188 L9 1259.81" class="st9"/>
			<rect v:rectContext="textBkgnd" x="-42.5951" y="1222.62" width="103.19" height="9.59985" class="st10"/>
			<text x="-42.6" y="1229.82" class="st11" v:langID="1033"><v:paragraph v:horizAlign="1"/><v:tabList/>[Heading within target ±10 deg]</text>		</g>
		<g id="shape30-129" v:mID="30" v:groupContext="shape" v:layerMember="0" transform="translate(574.222,-566.986)">
			<title>Dynamic connector.30</title>
			<desc>[X coord ≥ -15mm]</desc>
			<v:textBlock v:margins="rect(4,4,4,4)"/>
			<v:textRect cx="-64.7424" cy="1179" width="70.44" height="17.6036"/>
			<path d="M0 1179 L-122.44 1179" class="st9"/>
			<rect v:rectContext="textBkgnd" x="-95.0529" y="1174.2" width="60.6212" height="9.59985" class="st12"/>
			<text x="-95.05" y="1181.4" class="st11" v:langID="1033"><v:paragraph v:horizAlign="1"/><v:tabList/>[X coord ≥ -15mm]</text>		</g>
	</g>
</svg>
