<?xml version="1.0" encoding="UTF-8" standalone="no"?>
<!DOCTYPE svg PUBLIC "-//W3C//DTD SVG 1.1//EN" "http://www.w3.org/Graphics/SVG/1.1/DTD/svg11.dtd">
<!-- Generated by Microsoft Visio, SVG Export Task_Diagram.svg Page-1 -->
<svg xmlns="http://www.w3.org/2000/svg" xmlns:xlink="http://www.w3.org/1999/xlink" xmlns:ev="http://www.w3.org/2001/xml-events"
		xmlns:v="http://schemas.microsoft.com/visio/2003/SVGExtensions/" width="11in" height="8.5in" viewBox="0 0 792 612"
		xml:space="preserve" color-interpolation-filters="sRGB" class="st9">
	<v:documentProperties v:langID="1033" v:viewMarkup="false">
		<v:userDefs>
			<v:ud v:nameU="msvNoAutoConnect" v:prompt="" v:val="VT0(0):26"/>
		</v:userDefs>
	</v:documentProperties>

	<style type="text/css">
	<![CDATA[
		.st1 {fill:#000000;stroke:#000000;stroke-linecap:round;stroke-linejoin:round;stroke-width:0.5}
		.st2 {fill:#ffffff;font-family:Calibri;font-size:1.00001em}
		.st3 {fill:#ffffff;stroke:#000000;stroke-linecap:round;stroke-linejoin:round;stroke-width:0.5}
		.st4 {fill:#000000;font-family:Calibri;font-size:1.00001em}
		.st5 {font-size:1em}
		.st6 {fill:#ffffff;font-family:Calibri;font-size:1.00001em;font-weight:bold}
		.st7 {marker-end:url(#mrkr4-66);stroke:#000000;stroke-linecap:round;stroke-linejoin:round;stroke-width:0.5}
		.st8 {fill:#000000;fill-opacity:1;stroke:#000000;stroke-opacity:1;stroke-width:0.16556291390728}
		.st9 {fill:none;fill-rule:evenodd;font-size:12px;overflow:visible;stroke-linecap:square;stroke-miterlimit:3}
	]]>
	</style>

	<defs id="Markers">
		<g id="lend4">
			<path d="M 2 1 L 0 0 L 2 -1 L 2 1 " style="stroke:none"/>
		</g>
		<marker id="mrkr4-66" class="st8" v:arrowType="4" v:arrowSize="2" v:setback="12.08" refX="-12.08" orient="auto"
				markerUnits="strokeWidth" overflow="visible">
			<use xlink:href="#lend4" transform="scale(-6.04,-6.04) "/>
		</marker>
	</defs>
	<g v:mID="0" v:index="1" v:groupContext="foregroundPage">
		<v:userDefs>
			<v:ud v:nameU="msvThemeOrder" v:val="VT0(0):26"/>
		</v:userDefs>
		<title>Page-1</title>
		<v:pageProperties v:drawingScale="1" v:pageScale="1" v:drawingUnits="0" v:shadowOffsetX="9" v:shadowOffsetY="-9"/>
		<v:layer v:name="Connector" v:index="0"/>
		<g id="group1-1" transform="translate(347.625,-238.981)" v:mID="1" v:groupContext="group">
			<v:userDefs>
				<v:ud v:nameU="visVersion" v:prompt="" v:val="VT0(15):26"/>
			</v:userDefs>
			<title>State with internal behavior</title>
			<g id="shape1-2" v:mID="1" v:groupContext="groupContent">
				<rect x="0" y="552.792" width="96.75" height="59.2075" rx="9" ry="9" class="st1"/>
			</g>
			<g id="shape2-4" v:mID="2" v:groupContext="shape" transform="translate(0,-36.8038)">
				<title>Sheet.2</title>
				<desc>Control Motors</desc>
				<v:userDefs>
					<v:ud v:nameU="UmlRole" v:prompt="" v:val="VT4(Title)"/>
				</v:userDefs>
				<v:textBlock v:margins="rect(4,4,4,4)"/>
				<v:textRect cx="48.375" cy="600.798" width="96.76" height="22.4037"/>
				<path d="M9 612 L87.75 612 A9 9 -180 0 0 96.75 603 L96.75 598.6 A9 9 -180 0 0 87.75 589.6 L9 589.6 A9 9 -180 0 0
							 0 598.6 L0 603 A9 9 -180 0 0 9 612 Z" class="st1"/>
				<text x="10.95" y="604.4" class="st2" v:langID="1033"><v:paragraph v:horizAlign="1"/><v:tabList/>Control Motors</text>			</g>
			<g id="shape3-7" v:mID="3" v:groupContext="shape">
				<title>Sheet.3</title>
				<desc>FREQ: 33 Hz PRI: 1</desc>
				<v:userDefs>
					<v:ud v:nameU="UmlRole" v:prompt="" v:val="VT4(Body)"/>
				</v:userDefs>
				<v:textBlock v:margins="rect(4,4,4,4)"/>
				<v:textRect cx="48.375" cy="593.598" width="96.76" height="36.8038"/>
				<path d="M9 612 L87.75 612 A9 9 -180 0 0 96.75 603 L96.75 584.2 A9 9 -180 0 0 87.75 575.2 L9 575.2 A9 9 -180 0 0
							 0 584.2 L0 603 A9 9 -180 0 0 9 612 Z" class="st3"/>
				<text x="18.88" y="590" class="st4" v:langID="1033"><v:paragraph v:horizAlign="1"/><v:tabList/>FREQ: 33 Hz<v:newlineChar/><tspan
							x="34.5" dy="1.2em" class="st5">PRI: 1</tspan></text>			</g>
		</g>
		<g id="group8-11" transform="translate(347.625,-452.604)" v:mID="8" v:groupContext="group">
			<v:userDefs>
				<v:ud v:nameU="visVersion" v:prompt="" v:val="VT0(15):26"/>
			</v:userDefs>
			<title>State with internal behavior.8</title>
			<g id="shape8-12" v:mID="8" v:groupContext="groupContent">
				<rect x="0" y="552.792" width="96.75" height="59.2075" rx="9" ry="9" class="st1"/>
			</g>
			<g id="shape9-14" v:mID="9" v:groupContext="shape" transform="translate(0,-36.8038)">
				<title>Sheet.9</title>
				<desc>Update ToF</desc>
				<v:userDefs>
					<v:ud v:nameU="UmlRole" v:prompt="" v:val="VT4(Title)"/>
				</v:userDefs>
				<v:textBlock v:margins="rect(4,4,4,4)"/>
				<v:textRect cx="48.375" cy="600.798" width="96.76" height="22.4037"/>
				<path d="M9 612 L87.75 612 A9 9 -180 0 0 96.75 603 L96.75 598.6 A9 9 -180 0 0 87.75 589.6 L9 589.6 A9 9 -180 0 0
							 0 598.6 L0 603 A9 9 -180 0 0 9 612 Z" class="st1"/>
				<text x="20.15" y="604.4" class="st2" v:langID="1033"><v:paragraph v:horizAlign="1"/><v:tabList/>Update ToF</text>			</g>
			<g id="shape10-17" v:mID="10" v:groupContext="shape">
				<title>Sheet.10</title>
				<desc>FREQ: 33 Hz PRI: 1</desc>
				<v:userDefs>
					<v:ud v:nameU="UmlRole" v:prompt="" v:val="VT4(Body)"/>
				</v:userDefs>
				<v:textBlock v:margins="rect(4,4,4,4)"/>
				<v:textRect cx="48.375" cy="593.598" width="96.76" height="36.8038"/>
				<path d="M9 612 L87.75 612 A9 9 -180 0 0 96.75 603 L96.75 584.2 A9 9 -180 0 0 87.75 575.2 L9 575.2 A9 9 -180 0 0
							 0 584.2 L0 603 A9 9 -180 0 0 9 612 Z" class="st3"/>
				<text x="18.88" y="590" class="st4" v:langID="1033"><v:paragraph v:horizAlign="1"/><v:tabList/>FREQ: 33 Hz<v:newlineChar/><tspan
							x="34.5" dy="1.2em" class="st5">PRI: 1</tspan></text>			</g>
		</g>
		<g id="group11-21" transform="translate(495,-452.604)" v:mID="11" v:groupContext="group">
			<v:userDefs>
				<v:ud v:nameU="visVersion" v:prompt="" v:val="VT0(15):26"/>
			</v:userDefs>
			<title>State with internal behavior.11</title>
			<g id="shape11-22" v:mID="11" v:groupContext="groupContent">
				<rect x="0" y="552.792" width="96.75" height="59.2075" rx="9" ry="9" class="st1"/>
			</g>
			<g id="shape12-24" v:mID="12" v:groupContext="shape" transform="translate(0,-36.8038)">
				<title>Sheet.12</title>
				<desc>Update IMU</desc>
				<v:userDefs>
					<v:ud v:nameU="UmlRole" v:prompt="" v:val="VT4(Title)"/>
				</v:userDefs>
				<v:textBlock v:margins="rect(4,4,4,4)"/>
				<v:textRect cx="48.375" cy="600.798" width="96.76" height="22.4037"/>
				<path d="M9 612 L87.75 612 A9 9 -180 0 0 96.75 603 L96.75 598.6 A9 9 -180 0 0 87.75 589.6 L9 589.6 A9 9 -180 0 0
							 0 598.6 L0 603 A9 9 -180 0 0 9 612 Z" class="st1"/>
				<text x="18.5" y="604.4" class="st2" v:langID="1033"><v:paragraph v:horizAlign="1"/><v:tabList/>Update IMU</text>			</g>
			<g id="shape13-27" v:mID="13" v:groupContext="shape">
				<title>Sheet.13</title>
				<desc>FREQ: 33 Hz PRI: 1</desc>
				<v:userDefs>
					<v:ud v:nameU="UmlRole" v:prompt="" v:val="VT4(Body)"/>
				</v:userDefs>
				<v:textBlock v:margins="rect(4,4,4,4)"/>
				<v:textRect cx="48.375" cy="593.598" width="96.76" height="36.8038"/>
				<path d="M9 612 L87.75 612 A9 9 -180 0 0 96.75 603 L96.75 584.2 A9 9 -180 0 0 87.75 575.2 L9 575.2 A9 9 -180 0 0
							 0 584.2 L0 603 A9 9 -180 0 0 9 612 Z" class="st3"/>
				<text x="18.88" y="590" class="st4" v:langID="1033"><v:paragraph v:horizAlign="1"/><v:tabList/>FREQ: 33 Hz<v:newlineChar/><tspan
							x="34.5" dy="1.2em" class="st5">PRI: 1</tspan></text>			</g>
		</g>
		<g id="group1000-31" transform="translate(200.25,-452.604)" v:mID="1000" v:groupContext="group">
			<v:userDefs>
				<v:ud v:nameU="visVersion" v:prompt="" v:val="VT0(15):26"/>
			</v:userDefs>
			<title>State.1000</title>
			<g id="shape1000-32" v:mID="1000" v:groupContext="groupContent">
				<rect x="0" y="552.792" width="96.75" height="59.2075" rx="9" ry="9" class="st1"/>
			</g>
			<g id="shape1001-34" v:mID="1001" v:groupContext="shape" transform="translate(0,-36.8038)">
				<title>Sheet.1001</title>
				<desc>Update QTR</desc>
				<v:userDefs>
					<v:ud v:nameU="UmlRole" v:prompt="" v:val="VT4(Title)"/>
				</v:userDefs>
				<v:textBlock v:margins="rect(4,4,4,4)"/>
				<v:textRect cx="48.375" cy="600.798" width="96.76" height="22.4037"/>
				<path d="M9 612 L87.75 612 A9 9 -180 0 0 96.75 603 L96.75 598.6 A9 9 -180 0 0 87.75 589.6 L9 589.6 A9 9 -180 0 0
							 0 598.6 L0 603 A9 9 -180 0 0 9 612 Z" class="st1"/>
				<text x="18.13" y="604.4" class="st6" v:langID="1033"><v:paragraph v:horizAlign="1"/><v:tabList/>Update QTR</text>			</g>
			<g id="shape1002-37" v:mID="1002" v:groupContext="shape">
				<title>Sheet.1002</title>
				<desc>FREQ: 33 Hz PRI: 1</desc>
				<v:userDefs>
					<v:ud v:nameU="UmlRole" v:prompt="" v:val="VT4(Body)"/>
				</v:userDefs>
				<v:textBlock v:margins="rect(4,4,4,4)"/>
				<v:textRect cx="48.375" cy="593.598" width="96.76" height="36.8038"/>
				<path d="M9 612 L87.75 612 A9 9 -180 0 0 96.75 603 L96.75 584.2 A9 9 -180 0 0 87.75 575.2 L9 575.2 A9 9 -180 0 0
							 0 584.2 L0 603 A9 9 -180 0 0 9 612 Z" class="st3"/>
				<text x="18.88" y="590" class="st4" v:langID="1033"><v:paragraph v:horizAlign="1"/><v:tabList/>FREQ: 33 Hz<v:newlineChar/><tspan
							x="34.5" dy="1.2em" class="st5">PRI: 1</tspan></text>			</g>
		</g>
		<g id="group1013-41" transform="translate(347.625,-345.792)" v:mID="1013" v:groupContext="group">
			<v:userDefs>
				<v:ud v:nameU="visVersion" v:prompt="" v:val="VT0(15):26"/>
			</v:userDefs>
			<title>State with internal behavior.1013</title>
			<g id="shape1013-42" v:mID="1013" v:groupContext="groupContent">
				<rect x="0" y="552.792" width="96.75" height="59.2075" rx="9" ry="9" class="st1"/>
			</g>
			<g id="shape1014-44" v:mID="1014" v:groupContext="shape" transform="translate(0,-36.8038)">
				<title>Sheet.1014</title>
				<desc>Line Follower</desc>
				<v:userDefs>
					<v:ud v:nameU="UmlRole" v:prompt="" v:val="VT4(Title)"/>
				</v:userDefs>
				<v:textBlock v:margins="rect(4,4,4,4)"/>
				<v:textRect cx="48.375" cy="600.798" width="96.76" height="22.4037"/>
				<path d="M9 612 L87.75 612 A9 9 -180 0 0 96.75 603 L96.75 598.6 A9 9 -180 0 0 87.75 589.6 L9 589.6 A9 9 -180 0 0
							 0 598.6 L0 603 A9 9 -180 0 0 9 612 Z" class="st1"/>
				<text x="15.78" y="604.4" class="st2" v:langID="1033"><v:paragraph v:horizAlign="1"/><v:tabList/>Line Follower</text>			</g>
			<g id="shape1015-47" v:mID="1015" v:groupContext="shape">
				<title>Sheet.1015</title>
				<desc>FREQ: 33 Hz PRI: 1</desc>
				<v:userDefs>
					<v:ud v:nameU="UmlRole" v:prompt="" v:val="VT4(Body)"/>
				</v:userDefs>
				<v:textBlock v:margins="rect(4,4,4,4)"/>
				<v:textRect cx="48.375" cy="593.598" width="96.76" height="36.8038"/>
				<path d="M9 612 L87.75 612 A9 9 -180 0 0 96.75 603 L96.75 584.2 A9 9 -180 0 0 87.75 575.2 L9 575.2 A9 9 -180 0 0
							 0 584.2 L0 603 A9 9 -180 0 0 9 612 Z" class="st3"/>
				<text x="18.88" y="590" class="st4" v:langID="1033"><v:paragraph v:horizAlign="1"/><v:tabList/>FREQ: 33 Hz<v:newlineChar/><tspan
							x="34.5" dy="1.2em" class="st5">PRI: 1</tspan></text>			</g>
		</g>
		<g id="group1016-51" transform="translate(137.25,-192.792)" v:mID="1016" v:groupContext="group">
			<v:userDefs>
				<v:ud v:nameU="visVersion" v:prompt="" v:val="VT0(15):26"/>
			</v:userDefs>
			<title>State with internal behavior.1016</title>
			<g id="shape1016-52" v:mID="1016" v:groupContext="groupContent">
				<rect x="0" y="552.792" width="96.75" height="59.2075" rx="9" ry="9" class="st1"/>
			</g>
			<g id="shape1017-54" v:mID="1017" v:groupContext="shape" transform="translate(0,-36.8038)">
				<title>Sheet.1017</title>
				<desc>Garbage Collector</desc>
				<v:userDefs>
					<v:ud v:nameU="UmlRole" v:prompt="" v:val="VT4(Title)"/>
				</v:userDefs>
				<v:textBlock v:margins="rect(4,4,4,4)"/>
				<v:textRect cx="48.375" cy="600.798" width="96.76" height="22.4037"/>
				<path d="M9 612 L87.75 612 A9 9 -180 0 0 96.75 603 L96.75 598.6 A9 9 -180 0 0 87.75 589.6 L9 589.6 A9 9 -180 0 0
							 0 598.6 L0 603 A9 9 -180 0 0 9 612 Z" class="st1"/>
				<text x="4.53" y="604.4" class="st2" v:langID="1033"><v:paragraph v:horizAlign="1"/><v:tabList/>Garbage Collector</text>			</g>
			<g id="shape1018-57" v:mID="1018" v:groupContext="shape">
				<title>Sheet.1018</title>
				<desc>FREQ: 33 Hz PRI: 1</desc>
				<v:userDefs>
					<v:ud v:nameU="UmlRole" v:prompt="" v:val="VT4(Body)"/>
				</v:userDefs>
				<v:textBlock v:margins="rect(4,4,4,4)"/>
				<v:textRect cx="48.375" cy="593.598" width="96.76" height="36.8038"/>
				<path d="M9 612 L87.75 612 A9 9 -180 0 0 96.75 603 L96.75 584.2 A9 9 -180 0 0 87.75 575.2 L9 575.2 A9 9 -180 0 0
							 0 584.2 L0 603 A9 9 -180 0 0 9 612 Z" class="st3"/>
				<text x="18.88" y="590" class="st4" v:langID="1033"><v:paragraph v:horizAlign="1"/><v:tabList/>FREQ: 33 Hz<v:newlineChar/><tspan
							x="34.5" dy="1.2em" class="st5">PRI: 1</tspan></text>			</g>
		</g>
		<g id="shape1019-61" v:mID="1019" v:groupContext="shape" v:layerMember="0" transform="translate(248.625,-452.604)">
			<title>Dynamic connector.1019</title>
			<path d="M0 612 L0 689.21 L92.96 689.21" class="st7"/>
		</g>
		<g id="shape1020-67" v:mID="1020" v:groupContext="shape" v:layerMember="0" transform="translate(387,-452.604)">
			<title>Dynamic connector.1020</title>
			<path d="M9 612 L9 653.56" class="st7"/>
		</g>
		<g id="shape1021-72" v:mID="1021" v:groupContext="shape" v:layerMember="0" transform="translate(543.375,-452.604)">
			<title>Dynamic connector.1021</title>
			<path d="M0 612 L0 689.21 L-92.96 689.21" class="st7"/>
		</g>
		<g id="shape1022-77" v:mID="1022" v:groupContext="shape" v:layerMember="0" transform="translate(387,-345.792)">
			<title>Dynamic connector.1022</title>
			<path d="M9 612 L9 653.56" class="st7"/>
		</g>
		<g id="shape1023-82" v:mID="1023" v:groupContext="shape" v:layerMember="0" transform="translate(387,-298.189)">
			<title>Dynamic connector.1023</title>
			<path d="M9 612 L9 570.44" class="st7"/>
		</g>
	</g>
</svg>
